<svg width="76" height="54" viewBox="0 0 76 54" fill="none" xmlns="http://www.w3.org/2000/svg">
<path d="M10.5189 54V42.8351H20.4535C22.9371 42.8351 25.1772 42.4703 27.1739 41.7405C29.1705 40.9622 30.875 39.8919 32.2873 38.5297C33.6995 37.1189 34.7709 35.4405 35.5014 33.4946C36.2318 31.5 36.5971 29.3108 36.5971 26.927C36.5971 24.4459 36.2318 22.2324 35.5014 20.2865C34.7709 18.3405 33.6995 16.6865 32.2873 15.3243C30.875 13.9622 29.1705 12.9405 27.1739 12.2595C25.1772 11.5297 22.9371 11.1649 20.4535 11.1649H10.5189V0H19.796C24.6172 0 28.8296 0.705407 32.4333 2.11622C36.0371 3.52703 39.0564 5.44865 41.4913 7.88108C43.9262 10.3135 45.7281 13.1108 46.8969 16.273C48.1143 19.3865 48.7231 22.6703 48.7231 26.1243V27.7297C48.7231 30.9405 48.1143 34.127 46.8969 37.2892C45.7281 40.4027 43.9262 43.2243 41.4913 45.7541C39.0564 48.2351 36.0371 50.2297 32.4333 51.7378C28.8296 53.2459 24.6172 54 19.796 54H10.5189ZM0 54V0H11.9799V54H0Z" fill="#666666"/>
<path d="M23.8865 53.7081L42.0754 25.3216L42.2215 26.5622L25.4205 0.437866H38.5691L48.942 17.0757H50.6221L60.8488 0.437866H73.6322L56.7581 26.7081L56.539 25.5406L75.3123 53.7081H62.0906L49.9646 34.8811H48.2115L36.6699 53.7081H23.8865Z" fill="white"/>
</svg>
