<svg width="356" height="138" viewBox="0 0 356 138" fill="none" xmlns="http://www.w3.org/2000/svg">
<rect x="1" y="1" width="136" height="136" rx="68" fill="url(#paint0_linear_287_404)"/>
<rect x="1" y="1" width="136" height="136" rx="68" stroke="url(#paint1_linear_287_404)" stroke-width="2"/>
<rect x="17" y="17" width="104" height="104" rx="52" fill="url(#paint2_linear_287_404)"/>
<rect x="17" y="17" width="104" height="104" rx="52" stroke="url(#paint3_linear_287_404)" stroke-width="2"/>
<rect x="35" y="35" width="68" height="68" rx="34" fill="url(#paint4_linear_287_404)"/>
<rect x="35" y="35" width="68" height="68" rx="34" stroke="url(#paint5_linear_287_404)" stroke-width="2"/>
<path d="M57.3057 80.591V75.798H61.5868C62.657 75.798 63.6224 75.6414 64.4828 75.3281C65.3432 74.9939 66.0777 74.5345 66.6863 73.9497C67.2949 73.3441 67.7566 72.6236 68.0714 71.7882C68.3862 70.9319 68.5436 69.9921 68.5436 68.9688C68.5436 67.9037 68.3862 66.9534 68.0714 66.118C67.7566 65.2826 67.2949 64.5726 66.6863 63.9878C66.0777 63.403 65.3432 62.9645 64.4828 62.6721C63.6224 62.3588 62.657 62.2022 61.5868 62.2022H57.3057V57.4092H61.3035C63.3811 57.4092 65.1963 57.712 66.7493 58.3177C68.3022 58.9233 69.6034 59.7482 70.6527 60.7925C71.702 61.8367 72.4784 63.0376 72.9821 64.3951C73.5067 65.7317 73.7691 67.1414 73.7691 68.6242V69.3134C73.7691 70.6917 73.5067 72.0597 72.9821 73.4172C72.4784 74.7538 71.702 75.9651 70.6527 77.0511C69.6034 78.1162 68.3022 78.9724 66.7493 79.6199C65.1963 80.2673 63.3811 80.591 61.3035 80.591H57.3057ZM52.7727 80.591V57.4092H57.9352V80.591H52.7727Z" fill="#666666"/>
<path d="M63.0662 80.4657L70.9044 68.2796L70.9673 68.8122L63.7272 57.5972H69.3934L73.8634 64.7397H74.5874L78.9944 57.5972H84.5032L77.2316 68.8748L77.1372 68.3736L85.2272 80.4657H79.5296L74.3041 72.3834H73.5486L68.575 80.4657H63.0662Z" fill="white"/>
<path d="M179.5 58.5C179.5 57.6716 178.828 57 178 57C177.172 57 176.5 57.6716 176.5 58.5V67.5H167.5C166.672 67.5 166 68.1716 166 69C166 69.8284 166.672 70.5 167.5 70.5L176.5 70.5V79.5C176.5 80.3284 177.172 81 178 81C178.828 81 179.5 80.3284 179.5 79.5V70.5L188.5 70.5C189.328 70.5 190 69.8284 190 69C190 68.1716 189.328 67.5 188.5 67.5H179.5V58.5Z" fill="white"/>
<rect x="219" y="1" width="136" height="136" rx="68" fill="url(#paint6_linear_287_404)"/>
<rect x="219" y="1" width="136" height="136" rx="68" stroke="url(#paint7_linear_287_404)" stroke-width="2"/>
<rect x="235" y="17" width="104" height="104" rx="52" fill="url(#paint8_linear_287_404)"/>
<rect x="235" y="17" width="104" height="104" rx="52" stroke="url(#paint9_linear_287_404)" stroke-width="2"/>
<rect x="253" y="35" width="68" height="68" rx="34" fill="url(#paint10_linear_287_404)"/>
<rect x="253" y="35" width="68" height="68" rx="34" stroke="url(#paint11_linear_287_404)" stroke-width="2"/>
<path fill-rule="evenodd" clip-rule="evenodd" d="M281.333 80.3333V74.6667H275.667L270 69L275.667 63.3333H281.333V57.6667L287 52L292.667 57.6667V63.3333H298.333L304 69L298.333 74.6667H292.667V80.3333L287 86L281.333 80.3333ZM287 77.5L278.5 69L287 60.5L295.5 69L287 77.5Z" fill="white"/>
<defs>
<linearGradient id="paint0_linear_287_404" x1="69" y1="0" x2="69" y2="138" gradientUnits="userSpaceOnUse">
<stop stop-color="#1A1A1A"/>
<stop offset="0.565952" stop-color="#1A1A1A" stop-opacity="0"/>
</linearGradient>
<linearGradient id="paint1_linear_287_404" x1="69" y1="0" x2="69" y2="138" gradientUnits="userSpaceOnUse">
<stop stop-color="#333333"/>
<stop offset="0.745602" stop-color="#333333" stop-opacity="0"/>
</linearGradient>
<linearGradient id="paint2_linear_287_404" x1="69" y1="16" x2="69" y2="122" gradientUnits="userSpaceOnUse">
<stop stop-color="#1A1A1A"/>
<stop offset="0.658009" stop-color="#1A1A1A" stop-opacity="0"/>
</linearGradient>
<linearGradient id="paint3_linear_287_404" x1="69" y1="16" x2="69" y2="122" gradientUnits="userSpaceOnUse">
<stop stop-color="#333333"/>
<stop offset="0.82384" stop-color="#333333" stop-opacity="0"/>
</linearGradient>
<linearGradient id="paint4_linear_287_404" x1="69" y1="36" x2="69" y2="102" gradientUnits="userSpaceOnUse">
<stop stop-color="#1A1A1A"/>
<stop offset="1" stop-color="#1A1A1A" stop-opacity="0"/>
</linearGradient>
<linearGradient id="paint5_linear_287_404" x1="69" y1="36" x2="69" y2="102" gradientUnits="userSpaceOnUse">
<stop stop-color="#333333"/>
<stop offset="0.84964" stop-color="#333333" stop-opacity="0"/>
</linearGradient>
<linearGradient id="paint6_linear_287_404" x1="287" y1="0" x2="287" y2="138" gradientUnits="userSpaceOnUse">
<stop stop-color="#1A1A1A"/>
<stop offset="0.565952" stop-color="#1A1A1A" stop-opacity="0"/>
</linearGradient>
<linearGradient id="paint7_linear_287_404" x1="287" y1="0" x2="287" y2="138" gradientUnits="userSpaceOnUse">
<stop stop-color="#333333"/>
<stop offset="0.745602" stop-color="#333333" stop-opacity="0"/>
</linearGradient>
<linearGradient id="paint8_linear_287_404" x1="287" y1="16" x2="287" y2="122" gradientUnits="userSpaceOnUse">
<stop stop-color="#1A1A1A"/>
<stop offset="0.658009" stop-color="#1A1A1A" stop-opacity="0"/>
</linearGradient>
<linearGradient id="paint9_linear_287_404" x1="287" y1="16" x2="287" y2="122" gradientUnits="userSpaceOnUse">
<stop stop-color="#333333"/>
<stop offset="0.82384" stop-color="#333333" stop-opacity="0"/>
</linearGradient>
<linearGradient id="paint10_linear_287_404" x1="287" y1="36" x2="287" y2="102" gradientUnits="userSpaceOnUse">
<stop stop-color="#1A1A1A"/>
<stop offset="1" stop-color="#1A1A1A" stop-opacity="0"/>
</linearGradient>
<linearGradient id="paint11_linear_287_404" x1="287" y1="36" x2="287" y2="102" gradientUnits="userSpaceOnUse">
<stop stop-color="#333333"/>
<stop offset="0.84964" stop-color="#333333" stop-opacity="0"/>
</linearGradient>
</defs>
</svg>
