<svg width="16" height="14" viewBox="0 0 16 14" fill="none" xmlns="http://www.w3.org/2000/svg">
<path fill-rule="evenodd" clip-rule="evenodd" d="M0 6.53333C7.83726e-09 5.85678 0.532781 5.30833 1.19 5.30833H11.7222L8.29853 2.10802C7.82479 1.6391 7.81002 0.863622 8.26554 0.375943C8.72107 -0.111735 9.47439 -0.126941 9.94813 0.341981L15.5015 5.65031C15.7348 5.88127 15.8667 6.20011 15.8667 6.53333C15.8667 6.86655 15.7348 7.1854 15.5015 7.41635L9.94813 12.7247C9.47439 13.1936 8.72107 13.1784 8.26554 12.6907C7.81002 12.203 7.82479 11.4276 8.29853 10.9586L11.7222 7.75833H1.19C0.532781 7.75833 -7.83726e-09 7.20988 0 6.53333Z" fill="white"/>
</svg>
