<svg width="220" height="64" viewBox="0 0 220 64" fill="none" xmlns="http://www.w3.org/2000/svg">
<rect x="0.5" y="0.5" width="63" height="63" rx="31.5" fill="url(#paint0_linear_287_594)"/>
<rect x="0.5" y="0.5" width="63" height="63" rx="31.5" stroke="url(#paint1_linear_287_594)"/>
<g clip-path="url(#clip0_287_594)">
<path d="M20.1319 21.8302C20.1319 20.8924 20.9164 20.1318 21.884 20.1318H42.0891C43.0568 20.1318 43.8413 20.8924 43.8413 21.8302V42.1428C43.8413 43.0809 43.0568 43.8412 42.0891 43.8412H21.884C20.9164 43.8412 20.1319 43.0809 20.1319 42.1428V21.8302Z" fill="white"/>
<path d="M25.5284 27.8118C26.7771 27.8118 27.5545 26.9896 27.5545 25.9622C27.5313 24.9116 26.7774 24.1123 25.5521 24.1123C24.3272 24.1123 23.5263 24.9116 23.5263 25.9622C23.5263 26.9896 24.3034 27.8118 25.5052 27.8118H25.5284Z" fill="#0F0F0F"/>
<path d="M27.319 39.9786V29.2725H23.7379V39.9786H27.319Z" fill="#0F0F0F"/>
<path d="M29.3006 39.9786H32.8818V33.9999C32.8818 33.6799 32.905 33.3603 32.9995 33.1316C33.2585 32.4923 33.8475 31.8303 34.837 31.8303C36.1328 31.8303 36.6513 32.8121 36.6513 34.2512V39.9786H40.2319V33.84C40.2319 30.5515 38.4653 29.0215 36.1091 29.0215C34.1774 29.0215 33.3291 30.0945 32.8578 30.8252H32.8818V29.2725H29.3006C29.3475 30.2773 29.3006 39.9786 29.3006 39.9786Z" fill="#0F0F0F"/>
</g>
<rect x="78.5" y="0.5" width="63" height="63" rx="31.5" fill="url(#paint2_linear_287_594)"/>
<rect x="78.5" y="0.5" width="63" height="63" rx="31.5" stroke="url(#paint3_linear_287_594)"/>
<rect x="99.5" y="21.5" width="21" height="21" rx="6" fill="url(#paint4_radial_287_594)"/>
<rect x="99.5" y="21.5" width="21" height="21" rx="6" fill="url(#paint5_radial_287_594)"/>
<rect x="99.5" y="21.5" width="21" height="21" rx="6" fill="white"/>
<path d="M115.25 27.875C115.25 28.4963 114.746 29 114.125 29C113.504 29 113 28.4963 113 27.875C113 27.2537 113.504 26.75 114.125 26.75C114.746 26.75 115.25 27.2537 115.25 27.875Z" fill="#1A1A1A"/>
<path fill-rule="evenodd" clip-rule="evenodd" d="M110 35.75C112.071 35.75 113.75 34.0711 113.75 32C113.75 29.9289 112.071 28.25 110 28.25C107.929 28.25 106.25 29.9289 106.25 32C106.25 34.0711 107.929 35.75 110 35.75ZM110 34.25C111.243 34.25 112.25 33.2426 112.25 32C112.25 30.7574 111.243 29.75 110 29.75C108.757 29.75 107.75 30.7574 107.75 32C107.75 33.2426 108.757 34.25 110 34.25Z" fill="#1A1A1A"/>
<path fill-rule="evenodd" clip-rule="evenodd" d="M102.5 31.7C102.5 29.1798 102.5 27.9196 102.99 26.957C103.422 26.1103 104.11 25.4219 104.957 24.9905C105.92 24.5 107.18 24.5 109.7 24.5H110.3C112.82 24.5 114.08 24.5 115.043 24.9905C115.89 25.4219 116.578 26.1103 117.01 26.957C117.5 27.9196 117.5 29.1798 117.5 31.7V32.3C117.5 34.8202 117.5 36.0804 117.01 37.043C116.578 37.8897 115.89 38.5781 115.043 39.0095C114.08 39.5 112.82 39.5 110.3 39.5H109.7C107.18 39.5 105.92 39.5 104.957 39.0095C104.11 38.5781 103.422 37.8897 102.99 37.043C102.5 36.0804 102.5 34.8202 102.5 32.3V31.7ZM109.7 26H110.3C111.585 26 112.458 26.0012 113.133 26.0563C113.791 26.1101 114.127 26.2074 114.362 26.327C114.926 26.6146 115.385 27.0735 115.673 27.638C115.793 27.8726 115.89 28.2089 115.944 28.8666C115.999 29.5417 116 30.4151 116 31.7V32.3C116 33.5849 115.999 34.4583 115.944 35.1334C115.89 35.7911 115.793 36.1274 115.673 36.362C115.385 36.9265 114.926 37.3854 114.362 37.673C114.127 37.7926 113.791 37.8899 113.133 37.9437C112.458 37.9988 111.585 38 110.3 38H109.7C108.415 38 107.542 37.9988 106.867 37.9437C106.209 37.8899 105.873 37.7926 105.638 37.673C105.074 37.3854 104.615 36.9265 104.327 36.362C104.207 36.1274 104.11 35.7911 104.056 35.1334C104.001 34.4583 104 33.5849 104 32.3V31.7C104 30.4151 104.001 29.5417 104.056 28.8666C104.11 28.2089 104.207 27.8726 104.327 27.638C104.615 27.0735 105.074 26.6146 105.638 26.327C105.873 26.2074 106.209 26.1101 106.867 26.0563C107.542 26.0012 108.415 26 109.7 26Z" fill="#1A1A1A"/>
<rect x="156.5" y="0.5" width="63" height="63" rx="31.5" fill="url(#paint6_linear_287_594)"/>
<rect x="156.5" y="0.5" width="63" height="63" rx="31.5" stroke="url(#paint7_linear_287_594)"/>
<path d="M183.588 41.6196C192.535 41.6196 197.428 34.207 197.428 27.7791C197.428 27.5686 197.428 27.3589 197.414 27.1503C198.366 26.4616 199.188 25.6092 199.841 24.6323C198.953 25.0257 198.011 25.2838 197.047 25.3976C198.062 24.7896 198.822 23.8336 199.186 22.7071C198.231 23.2738 197.186 23.6732 196.097 23.8879C194.254 21.9289 191.173 21.8344 189.214 23.6766C187.951 24.8647 187.415 26.635 187.807 28.3244C183.896 28.1282 180.252 26.2809 177.782 23.2419C176.491 25.4645 177.15 28.3081 179.288 29.7354C178.514 29.7125 177.757 29.5036 177.08 29.1266C177.08 29.1466 177.08 29.1674 177.08 29.1882C177.081 31.5038 178.713 33.4981 180.983 33.9567C180.267 34.1519 179.515 34.1806 178.786 34.0402C179.423 36.0218 181.25 37.3793 183.331 37.4183C181.608 38.7721 179.48 39.5068 177.29 39.5047C176.903 39.5039 176.516 39.4805 176.132 39.4344C178.356 40.8619 180.945 41.6191 183.588 41.6156" fill="white"/>
<defs>
<linearGradient id="paint0_linear_287_594" x1="32" y1="0" x2="32" y2="64" gradientUnits="userSpaceOnUse">
<stop stop-color="#1A1A1A"/>
<stop offset="1" stop-color="#1A1A1A" stop-opacity="0"/>
</linearGradient>
<linearGradient id="paint1_linear_287_594" x1="32" y1="0" x2="32" y2="64" gradientUnits="userSpaceOnUse">
<stop stop-color="#262626"/>
<stop offset="1" stop-color="#262626" stop-opacity="0"/>
</linearGradient>
<linearGradient id="paint2_linear_287_594" x1="110" y1="0" x2="110" y2="64" gradientUnits="userSpaceOnUse">
<stop stop-color="#1A1A1A"/>
<stop offset="1" stop-color="#1A1A1A" stop-opacity="0"/>
</linearGradient>
<linearGradient id="paint3_linear_287_594" x1="110" y1="0" x2="110" y2="64" gradientUnits="userSpaceOnUse">
<stop stop-color="#262626"/>
<stop offset="1" stop-color="#262626" stop-opacity="0"/>
</linearGradient>
<radialGradient id="paint4_radial_287_594" cx="0" cy="0" r="1" gradientUnits="userSpaceOnUse" gradientTransform="translate(107 37.25) rotate(-55.3758) scale(19.1397)">
<stop stop-color="#B13589"/>
<stop offset="0.79309" stop-color="#C62F94"/>
<stop offset="1" stop-color="#8A3AC8"/>
</radialGradient>
<radialGradient id="paint5_radial_287_594" cx="0" cy="0" r="1" gradientUnits="userSpaceOnUse" gradientTransform="translate(106.25 43.25) rotate(-65.1363) scale(16.9457)">
<stop stop-color="#E0E8B7"/>
<stop offset="0.444662" stop-color="#FB8A2E"/>
<stop offset="0.71474" stop-color="#E2425C"/>
<stop offset="1" stop-color="#E2425C" stop-opacity="0"/>
</radialGradient>
<linearGradient id="paint6_linear_287_594" x1="188" y1="0" x2="188" y2="64" gradientUnits="userSpaceOnUse">
<stop stop-color="#1A1A1A"/>
<stop offset="1" stop-color="#1A1A1A" stop-opacity="0"/>
</linearGradient>
<linearGradient id="paint7_linear_287_594" x1="188" y1="0" x2="188" y2="64" gradientUnits="userSpaceOnUse">
<stop stop-color="#262626"/>
<stop offset="1" stop-color="#262626" stop-opacity="0"/>
</linearGradient>
<clipPath id="clip0_287_594">
<rect width="24" height="24" fill="white" transform="translate(20 20)"/>
</clipPath>
</defs>
</svg>
