<svg width="58" height="58" viewBox="0 0 58 58" fill="none" xmlns="http://www.w3.org/2000/svg">
<rect x="0.5" y="0.5" width="57" height="57" rx="7.5" fill="#1A1A1A"/>
<rect x="0.5" y="0.5" width="57" height="57" rx="7.5" stroke="#262626"/>
<path d="M38.9406 23.9009C38.9558 24.1213 38.9558 24.3417 38.9558 24.5641C38.9558 31.3415 33.7964 39.1578 24.3621 39.1578V39.1538C21.5752 39.1579 18.8461 38.3596 16.5 36.8544C16.9052 36.9031 17.3125 36.9275 17.7208 36.9285C20.0304 36.9305 22.2739 36.1556 24.0909 34.7286C21.8961 34.687 19.9715 33.256 19.2991 31.1668C20.0679 31.3151 20.8601 31.2846 21.6148 31.0784C19.2219 30.595 17.5004 28.4926 17.5004 26.051C17.5004 26.0287 17.5004 26.0073 17.5004 25.986C18.2134 26.3831 19.0117 26.6035 19.8283 26.6279C17.5745 25.1217 16.8798 22.1235 18.2408 19.7794C20.8449 22.9838 24.6871 24.9318 28.8116 25.1379C28.3982 23.3565 28.9629 21.4898 30.2955 20.2375C32.3613 18.2956 35.6103 18.3951 37.5522 20.4599C38.7009 20.2334 39.8018 19.8119 40.8094 19.2147C40.4265 20.402 39.6251 21.4105 38.5546 22.0514C39.5713 21.9316 40.5646 21.6594 41.5 21.244C40.8114 22.2759 39.944 23.1747 38.9406 23.9009Z" fill="white"/>
</svg>
